<?xml version="1.0" ?><svg id="Icons" viewBox="0 0 48 48" xmlns="http://www.w3.org/2000/svg"><defs><style>.cls-1,.cls-10{fill:#45413c;}.cls-1{opacity:0.15;}.cls-2{fill:#00b8f0;}.cls-3{fill:#009fd9;}.cls-4{fill:none;}.cls-10,.cls-4,.cls-7{stroke:#45413c;stroke-linecap:round;stroke-linejoin:round;}.cls-5,.cls-7{fill:#ffcebf;}.cls-6{fill:#ffb59e;}.cls-8{fill:#a86c4d;}.cls-9{fill:#de926a;}.cls-11{fill:#ff6242;}.cls-12{fill:#ffa694;}</style></defs><title/><ellipse class="cls-1" cx="24" cy="45.5" data-name="&lt;Ellipse&gt;" id="_Ellipse_" rx="18" ry="1.5"/><path class="cls-2" d="M36,29.83l-1.38,8a11.87,11.87,0,0,0-21.26,0l-1.38-8-4.93.52L8.22,41.49A3.92,3.92,0,0,0,12.12,45H35.88a3.92,3.92,0,0,0,3.9-3.51l1.16-11.14Z" data-name="&lt;Path&gt;" id="_Path_"/><polygon class="cls-3" points="7.06 30.35 7.31 32.75 12.41 32.22 11.99 29.83 7.06 30.35"/><polygon class="cls-3" points="36.01 29.83 35.59 32.22 40.69 32.75 40.94 30.35 36.01 29.83"/><path class="cls-3" d="M24,31.22a11.88,11.88,0,0,0-10.63,6.59l.34,1.8a11.86,11.86,0,0,1,20.58,0l.34-1.8A11.88,11.88,0,0,0,24,31.22Z"/><path class="cls-4" d="M36,29.83l-1.38,8a11.87,11.87,0,0,0-21.26,0l-1.38-8-4.93.52L8.22,41.49A3.92,3.92,0,0,0,12.12,45H35.88a3.92,3.92,0,0,0,3.9-3.51l1.16-11.14Z" data-name="&lt;Path&gt;" id="_Path_2"/><rect class="cls-5" data-name="&lt;Rectangle&gt;" height="7.94" id="_Rectangle_" rx="2.54" ry="2.54" width="5.09" x="21.46" y="27.17"/><path class="cls-6" d="M24,27.17a2.54,2.54,0,0,0-2.54,2.54v.6a2.54,2.54,0,0,0,5.08,0v-.59A2.54,2.54,0,0,0,24,27.17Z" data-name="&lt;Path&gt;" id="_Path_3"/><rect class="cls-4" data-name="&lt;Rectangle&gt;" height="7.94" id="_Rectangle_2" rx="2.54" ry="2.54" width="5.09" x="21.46" y="27.17"/><path class="cls-7" d="M9.5,29.12l-3.18-.61a.89.89,0,0,1-.7-1h0a.89.89,0,0,1,1-.7L11,27.6Z" data-name="&lt;Path&gt;" id="_Path_4"/><path class="cls-7" d="M3.3,27.93l4.1.79A4,4,0,0,1,11,27.6h0a1.88,1.88,0,0,1,1.48,2.19h0a1.88,1.88,0,0,1-2.19,1.48L2.93,29.86a1,1,0,0,1-.78-1.15A1,1,0,0,1,3.3,27.93Z" data-name="&lt;Path&gt;" id="_Path_5"/><path class="cls-7" d="M38.5,29.12l3.18-.61a.89.89,0,0,0,.7-1h0a.89.89,0,0,0-1-.7L37,27.6Z" data-name="&lt;Path&gt;" id="_Path_6"/><path class="cls-7" d="M44.7,27.93l-4.1.79A4,4,0,0,0,37,27.6h0a1.88,1.88,0,0,0-1.48,2.19h0a1.88,1.88,0,0,0,2.19,1.48l7.33-1.41a1,1,0,0,0,.78-1.15A1,1,0,0,0,44.7,27.93Z" data-name="&lt;Path&gt;" id="_Path_7"/><line class="cls-4" data-name="&lt;Path&gt;" id="_Path_8" x1="13.37" x2="14.15" y1="37.81" y2="41.88"/><line class="cls-4" data-name="&lt;Path&gt;" id="_Path_9" x1="34.63" x2="33.85" y1="37.81" y2="41.88"/><path class="cls-8" d="M24,6.91a9.83,9.83,0,0,0-2.44.31c-1.86.42-4.28,1.12-6.47.7a4.2,4.2,0,0,0,.84,3.21,9.81,9.81,0,0,0-1.75,5.6v5.14H33.82V16.73A9.82,9.82,0,0,0,24,6.91Z" data-name="&lt;Path&gt;" id="_Path_10"/><g data-name="&lt;Group&gt;" id="_Group_"><path class="cls-9" d="M24,6.91a9.83,9.83,0,0,0-2.44.31c-1.86.42-4.28,1.12-6.47.7a4.47,4.47,0,0,0,.68,3,19.4,19.4,0,0,0,5.79-.79,9.81,9.81,0,0,1,12.26,9.51V16.73A9.82,9.82,0,0,0,24,6.91Z" data-name="&lt;Path&gt;" id="_Path_11"/></g><path class="cls-4" d="M24,6.91a9.83,9.83,0,0,0-2.44.31c-1.86.42-4.28,1.12-6.47.7a4.2,4.2,0,0,0,.84,3.21,9.81,9.81,0,0,0-1.75,5.6v5.14H33.82V16.73A9.82,9.82,0,0,0,24,6.91Z" data-name="&lt;Path&gt;" id="_Path_12"/><path class="cls-7" d="M34.87,21.12a1.83,1.83,0,0,0-1.39-1.54l-.59-.16a2.06,2.06,0,0,1-1.5-2V15.38A1.88,1.88,0,0,0,30,13.57a15.34,15.34,0,0,1-6,1.09,15.34,15.34,0,0,1-6-1.09,1.88,1.88,0,0,0-1.4,1.81v2.06a2.06,2.06,0,0,1-1.5,2l-.59.16a1.83,1.83,0,0,0-1.39,1.54,1.81,1.81,0,0,0,1.81,2h.11a9,9,0,0,0,17.9,0h.11A1.81,1.81,0,0,0,34.87,21.12Z"/><path class="cls-10" d="M18.57,20.91a.77.77,0,1,0,.77-.77A.76.76,0,0,0,18.57,20.91Z" data-name="&lt;Path&gt;" id="_Path_13"/><path class="cls-10" d="M29.43,20.91a.77.77,0,1,1-.77-.77A.76.76,0,0,1,29.43,20.91Z" data-name="&lt;Path&gt;" id="_Path_14"/><ellipse class="cls-6" cx="18.06" cy="24.19" data-name="&lt;Ellipse&gt;" id="_Ellipse_2" rx="1" ry="0.6"/><ellipse class="cls-6" cx="29.94" cy="24.19" data-name="&lt;Ellipse&gt;" id="_Ellipse_3" rx="1" ry="0.6"/><path class="cls-11" d="M26.54,27.83c0,.86-1.13,1.05-2.54,1.05s-2.54-.19-2.54-1.05a2.6,2.6,0,0,1,5.08,0Z" data-name="&lt;Path&gt;" id="_Path_15"/><path class="cls-12" d="M26.21,28.46a2.73,2.73,0,0,0-4.42,0,4,4,0,0,0,2.21.42A4,4,0,0,0,26.21,28.46Z" data-name="&lt;Path&gt;" id="_Path_16"/><path class="cls-4" d="M26.54,27.83c0,.86-1.13,1.05-2.54,1.05s-2.54-.19-2.54-1.05a2.6,2.6,0,0,1,5.08,0Z" data-name="&lt;Path&gt;" id="_Path_17"/></svg>